<svg width="48" height="48" viewBox="0 0 48 48" fill="none" xmlns="http://www.w3.org/2000/svg">
<rect width="48" height="48" rx="7" fill="#A50853"/>
<path fill-rule="evenodd" clip-rule="evenodd" d="M36 14C36 13.4696 35.7893 12.9609 35.4142 12.5858C35.0391 12.2107 34.5304 12 34 12H30V10H28V12H20V10H18V12H14C13.4696 12 12.9609 12.2107 12.5858 12.5858C12.2107 12.9609 12 13.4696 12 14V34C12 34.5304 12.2107 35.0391 12.5858 35.4142C12.9609 35.7893 13.4696 36 14 36H18V34H14V14H18V16H20V14H28V16H30V14H34V20H36V14ZM38 29H35.91C35.7602 28.1095 35.4099 27.2646 34.8856 26.5293L36.364 25.05L34.95 23.6362L33.4712 25.1147C32.7358 24.5902 31.8908 24.2398 31 24.09V22H29V24.09C28.1094 24.2398 27.2645 24.5901 26.5291 25.1144L25.05 23.6362L23.636 25.05L25.1147 26.529C24.5904 27.2644 24.24 28.1093 24.09 29H22V31H24.09C24.2399 31.8905 24.5902 32.7353 25.1144 33.4707L23.636 34.95L25.05 36.3638L26.5288 34.8853C27.2642 35.4098 28.1092 35.7602 29 35.91V38H31V35.91C31.8906 35.7602 32.7355 35.4099 33.4709 34.8856L34.95 36.3638L36.364 34.95L34.8853 33.471C35.4097 32.7356 35.7601 31.8907 35.91 31H38V29ZM30 34C29.2089 34 28.4355 33.7654 27.7777 33.3259C27.1199 32.8864 26.6072 32.2616 26.3045 31.5307C26.0017 30.7998 25.9225 29.9956 26.0769 29.2196C26.2312 28.4437 26.6122 27.731 27.1716 27.1716C27.731 26.6122 28.4437 26.2312 29.2196 26.0769C29.9956 25.9225 30.7998 26.0017 31.5307 26.3045C32.2616 26.6072 32.8864 27.1199 33.3259 27.7777C33.7654 28.4355 34 29.2089 34 30C33.9988 31.0605 33.577 32.0772 32.8271 32.8271C32.0772 33.577 31.0605 33.9988 30 34ZM20 19H17V21H20V19ZM22 19H25V21H22V19ZM20 23H17V25H20V23Z" fill="white"/>
</svg>
